<svg fill="none" height="42" viewBox="0 0 132 42" width="132" xmlns="http://www.w3.org/2000/svg" xmlns:xlink="http://www.w3.org/1999/xlink"><clipPath id="a"><path d="m0 0h132v41.1819h-132z"/></clipPath><g clip-path="url(#a)" fill="#055577"><path d="m118.852 12.1368c1.089-.7521 2.282-1.1411 3.605-1.1411 1.582 0 2.749.415 3.475 1.2448.726.8299 1.089 1.8672 1.089 3.1639h-10.166c.26-1.4263.934-2.5155 1.997-3.2676zm12.759 13.7187-3.008-3.3973c-.415.3112-.934.5965-1.478.8299-.467.2334-1.012.4149-1.66.5964-.648.1816-1.374.2594-2.178.2594-.856 0-1.66-.1297-2.438-.389-.752-.2594-1.452-.5965-2.049-1.0374-.596-.4408-1.089-.9854-1.478-1.6597-.389-.6483-.648-1.3744-.726-2.1524h15.223c.051-.2853.103-.7002.129-1.2448s.052-1.0633.052-1.556c0-1.2189-.155-2.4118-.467-3.5269-.311-1.1152-.829-2.1006-1.582-2.95643-.726-.85579-1.711-1.53005-2.904-2.04872-1.193-.51866-2.723-.77799-4.538-.77799-1.634 0-3.164.25933-4.539.75206-1.374.49273-2.567 1.21886-3.553 2.15245-.985.93363-1.763 2.07463-2.334 3.42323-.57 1.3485-.855 2.9045-.855 4.6161 0 1.6078.311 3.112.907 4.4605.623 1.3485 1.453 2.5155 2.516 3.475 1.063.9596 2.334 1.7116 3.786 2.2303 1.452.5186 3.06.8039 4.798.8039 1.27 0 2.412-.1556 3.423-.4408 1.011-.2853 1.893-.6224 2.697-1.0374.856-.3371 1.608-.8039 2.256-1.3744z"/><path d="m67.3227 23.5992c-.2853.0259-.5964.0519-.8817.0519-.2593 0-.5187-.026-.778-.0519s-.5187-.1037-.7261-.2593c-.2075-.1297-.389-.3371-.5446-.5965-.1297-.2593-.2075-.6483-.2075-1.141v-9.5175h3.6566v-4.71987h-3.6566v-7.36503h-5.446v7.36503h-2.6452v4.71987h2.6452v9.4915c0 1.6079.2334 2.8786.7261 3.8122.4928.9336 1.0892 1.6079 1.8413 2.0747.7261.4668 1.556.7261 2.4896.8298.9336.1038 1.8153.1556 2.6711.1556.389 0 .8558-.0259 1.3485-.1037.5187-.0778.9596-.1297 1.3226-.1815l-1.0114-4.694c-.2593.0519-.5186.1038-.8039.1297z"/><path d="m20.3317 15.4043c.2594-1.4264.9336-2.5156 1.9969-3.2676 1.0892-.7521 2.2821-1.1411 3.6047-1.1411 1.5819 0 2.7489.415 3.475 1.2448.7262.8299 1.0892 1.8672 1.0892 3.1639zm13.0963-5.73127c-.7261-.85579-1.7116-1.53006-2.9045-2.04872-1.193-.51866-2.723-.778-4.5383-.778-1.6338 0-3.1639.25934-4.5383.75207-1.3745.49273-2.5674 1.21886-3.5529 2.15245-.9855.93357-1.7635 2.07467-2.334 3.42317s-.8558 2.9045-.8558 4.6161c0 1.6079.3112 3.112.9077 4.4605.5964 1.3486 1.4522 2.5155 2.5155 3.4751 1.0633.9595 2.334 1.7116 3.7863 2.2302 1.4522.5187 3.0601.804 4.7976.804 1.2707 0 2.4118-.1556 3.4232-.4409s1.919-.6224 2.697-1.0373c.8558-.415 1.6079-.9077 2.2562-1.4523l-3.0082-3.3972c-.415.3112-.9336.5964-1.4782.8298-.4668.2334-1.0114.415-1.6598.5965-.6483.1815-1.3744.2853-2.1783.2853-.8558 0-1.6598-.1297-2.4118-.389-.778-.2594-1.4523-.5965-2.0487-1.0374-.5965-.4408-1.0892-.9854-1.4782-1.6597-.389-.6483-.6484-1.3745-.7262-2.1525h15.2228c.0519-.2852.1038-.7001.1297-1.2447s.0518-1.0633.0518-1.556c0-1.2189-.1555-2.4118-.4667-3.527-.3372-1.0632-.8558-2.0487-1.6079-2.90447z"/><path d="m52.1258 18.1273c-.5705-.4928-1.2448-.9077-1.945-1.2448-.7261-.3112-1.4523-.5965-2.1784-.8558-.5186-.1556-1.0114-.3372-1.5041-.4928-.4927-.1555-.9336-.3371-1.2967-.5186-.363-.1815-.6742-.389-.8817-.6224-.2334-.2334-.3371-.5187-.3371-.8039 0-.5965.2852-1.0633.8817-1.4004.5705-.3372 1.2707-.5187 2.0747-.5187.6483 0 1.2188.0519 1.7115.1815.4928.1297.9077.2853 1.2708.4928.4149.2074.778.4149 1.0632.6742l2.5415-3.81215c-.4927-.41493-1.0633-.80393-1.7375-1.167-.5965-.28526-1.3226-.54459-2.1784-.77799s-1.8413-.36307-2.9823-.36307c-1.167 0-2.2562.12967-3.2676.389s-1.8672.67426-2.5933 1.19293c-.7262.51866-1.2967 1.16699-1.7116 1.94498-.415.778-.6224 1.6597-.6224 2.6452 0 1.0114.1815 1.8672.5186 2.5674.3372.7002.804 1.2966 1.3486 1.7894.5705.4668 1.1929.8817 1.919 1.1929.7002.3112 1.4263.5965 2.1265.8558.5446.1556 1.0633.3371 1.582.4927.5186.1556.9595.3631 1.3744.5706.415.2074.7262.4408.9855.7002.2334.2593.363.5705.363.9595 0 .5446-.2593 1.0114-.8039 1.3485s-1.2707.5187-2.1784.5187c-.7002 0-1.3485-.0778-1.919-.2594-.5706-.1815-1.0633-.389-1.4782-.6224-.415-.2334-.7521-.4668-1.0114-.6742-.2593-.2075-.4149-.3372-.5187-.389l-2.9304 3.6306c.6224.5706 1.3485 1.0633 2.1784 1.5042.7002.389 1.5819.752 2.6192 1.0632s2.2303.4927 3.6047.4927c2.5415 0 4.5124-.5705 5.8609-1.6856 1.3486-1.1411 2.0488-2.6193 2.0488-4.4865 0-1.0373-.1816-1.919-.5446-2.6451-.389-.7521-.8558-1.3745-1.4523-1.8672z"/><path d="m12.3961 12.1627c.2853.0259.4928.0519.5965.0778.1037-.8039.2075-1.6079.3112-2.41179.1037-.80393.1815-1.60786.2853-2.41179-.7002-.15559-1.4782-.25933-2.3081-.25933-1.2448 0-2.41178.33713-3.50097 1.0114-1.0892.67426-1.91906 1.53006-2.51552 2.59331h-.0778l-.0778-3.42318h-5.082909v20.92808h5.394109v-13.0444c.2334-.4927.54459-.9595.95953-1.3485.41493-.389.88172-.7261 1.42632-.9855.5446-.2593 1.11513-.4668 1.71159-.5964.59645-.1297 1.21885-.1816 1.81535-.1816.4149.026.778.026 1.0632.0519z"/><path d="m108.012 7.18359c-1.245 0-2.412.33714-3.501 1.0114s-1.919 1.53006-2.516 2.59331h-.078l-.077-3.42317h-5.1092v20.92807h5.3942v-13.0703c.233-.4927.545-.9595.959-1.3485.415-.389.882-.7262 1.427-.9855.544-.2593 1.115-.4668 1.711-.5965.597-.1296 1.219-.1815 1.816-.1815.415 0 .778.0259 1.063.0519.285.0259.493.0518.596.0778.104-.804.208-1.6079.312-2.41182.103-.80393.181-1.60786.285-2.41179-.7-.12966-1.478-.2334-2.282-.2334z"/><path d="m90.7664 11.5662-3.6307 4.5124c.2593.6483.389 1.3485.389 2.0747 0 3.112-2.5674 5.6534-5.7312 5.6534-3.1639 0-5.7313-2.5414-5.7313-5.6534s2.5674-5.6535 5.7313-5.6535c.6483 0 1.2707.1038 1.8412.3112l4.3827-3.81215c-.5964-.389-1.2188-.72613-1.8671-.98546-1.3745-.57053-2.8527-.8558-4.3568-.8558-1.5042 0-2.9823.28527-4.3568.8558-1.3226.5446-2.5415 1.34852-3.5529 2.35991-1.0114 1.0114-1.8412 2.1784-2.4117 3.501-.5965 1.3485-.8818 2.8008-.8818 4.279s.2853 2.9304.8818 4.2789c.5705 1.3226 1.3744 2.4896 2.4117 3.501 1.0374 1.0114 2.2303 1.8154 3.5529 2.36 1.3745.5705 2.8526.8557 4.3568.8557 1.5041 0 2.9823-.2852 4.3568-.8557 1.3226-.5446 2.5414-1.3486 3.5528-2.36 1.0373-1.0114 1.8413-2.1784 2.3859-3.501.5964-1.3485.8817-2.8007.8817-4.2789s-.2853-2.9305-.8817-4.279c-.3372-.8299-.804-1.6079-1.3226-2.3081z"/><path d="m81.7934 19.5536c-.778 0-1.4263-.6224-1.4263-1.4004s.6483-1.4004 1.4263-1.4004 1.4263.6224 1.4263 1.4004-.6483 1.4004-1.4263 1.4004zm0-4.4086c-1.6857 0-3.0601 1.3485-3.0601 3.0082s1.3744 3.0083 3.0601 3.0083c1.6856 0 3.0601-1.3486 3.0601-3.0083 0-.4149-.1037-.8299-.2593-1.1929l7.0279-8.76545c.0518-.0778.0518-.1556-.026-.20746-.0518-.05187-.1556-.05187-.2074 0l-8.4802 7.36501c-.363-.1296-.7261-.2074-1.1151-.2074z"/><path d="m3.73438 35.4248v2.4637h-3.137916v-2.4637h-.596464v5.6794h.596464v-2.6971h3.137916v2.6971h.57053v-5.6794z"/><path d="m14.3411 35.4248-1.7376 2.7489-1.7375-2.7489h-.7261l2.1524 3.2157v2.4637h.5965v-2.4637l2.1525-3.2157z"/><path d="m23.4954 37.7069c-.2334.1815-.5965.2593-1.0633.2593h-.9854v-2.0487h.9854c.4409 0 .804.0778 1.0374.2334.2593.1556.363.4149.363.778 0 .3371-.1037.5964-.3371.778zm.4149-1.9191c-.1815-.1297-.363-.2075-.6224-.2853-.2334-.0518-.4927-.1037-.8039-.1037h-1.6338v5.6794h.5965v-2.6452h1.0373c.2853 0 .5705-.0259.8039-.1037.2334-.0519.4409-.1556.6224-.2853.1816-.1297.3112-.2853.389-.4668.1038-.1815.1556-.4149.1556-.6743 0-.2593-.0518-.4668-.1296-.6742-.1297-.1556-.2594-.3112-.415-.4409z"/><path d="m30.4456 35.4248v5.6794h3.6565v-.5187h-3.086v-2.1784h2.8008v-.5186h-2.8008v-1.945h3.0082v-.5187z"/><path d="m40.7151 37.9403v-2.0228h1.0373c.2075 0 .4149.026.5965.0519.1815.0259.3371.1037.4668.1815.1296.0778.2333.1816.2852.3112.0778.1297.1037.2853.1037.4668 0 .3372-.1296.5965-.3889.7521-.2594.1556-.6224.2593-1.0892.2593zm2.2043.3112c.1815-.0778.3371-.1815.4668-.3112.1296-.1296.2334-.2852.3112-.4408.0778-.1816.1037-.3631.1037-.5706 0-.2852-.0519-.5186-.1556-.7002-.1037-.1815-.2334-.3371-.4149-.4668-.1816-.1296-.389-.2074-.6224-.2593s-.4927-.0778-.778-.0778h-1.6857v5.6794h.5965v-2.6452h.9855l1.6078 2.6452h.7261l-1.6856-2.6971c.1556-.0259.363-.0778.5446-.1556z"/><path d="m64.3143 35.4248-1.4004 4.8754-1.4522-4.8754h-.7002l-1.4523 4.8754-1.4263-4.8754h-.6224l1.7116 5.6794h.6743l1.4522-4.8755 1.4523 4.8755h.7002l1.6856-5.6794z"/><path d="m70.8236 35.4248v5.6794h3.6825v-.5187h-3.086v-2.1784h2.7748v-.5186h-2.7748v-1.945h2.9823v-.5187z"/><path d="m80.5226 35.4248v5.6794h3.2676v-.5187h-2.6971v-5.1607z"/><path d="m89.677 35.4248v5.6794h3.2676v-.5187h-2.6971v-5.1607z"/><path d="m102.929 35.4248v4.8236h-.026l-3.3455-4.8236h-.7261v5.6794h.5705v-4.8755h.026l3.3451 4.8755h.726v-5.6794z"/><path d="m110.035 35.4248v5.6794h3.656v-.5187h-3.086v-2.1784h2.801v-.5186h-2.801v-1.945h3.008v-.5187z"/><path d="m121.393 38.07c-.596-.2853-1.193-.4668-1.193-1.167 0-.5187.467-.9077 1.167-.9077.752 0 1.167.3631 1.167.3631l.337-.3112s-.518-.5446-1.504-.5446c-1.037 0-1.737.6224-1.737 1.4263 0 .9595.778 1.2448 1.504 1.6079.596.2852 1.271.5186 1.271 1.2447 0 .4928-.415.9077-1.115.9077-.908 0-1.427-.4927-1.427-.4927l-.363.2852s.623.7002 1.764.7002c1.063 0 1.685-.6483 1.685-1.4004.026-1.0632-.778-1.3225-1.556-1.7115z"/><path d="m130.392 38.07c-.596-.2853-1.193-.4668-1.193-1.167 0-.5187.467-.9077 1.167-.9077.752 0 1.167.3631 1.167.3631l.337-.3112s-.518-.5446-1.504-.5446c-1.037 0-1.737.6224-1.737 1.4263 0 .9595.778 1.2448 1.504 1.6079.596.2852 1.271.5186 1.271 1.2447 0 .4928-.415.9077-1.116.9077-.907 0-1.426-.4927-1.426-.4927l-.363.2852s.622.7002 1.763.7002c1.064 0 1.686-.6483 1.686-1.4004.026-1.0632-.778-1.3225-1.556-1.7115z"/></g></svg>