<svg fill="none" height="55" viewBox="0 0 56 55" width="56" xmlns="http://www.w3.org/2000/svg" xmlns:xlink="http://www.w3.org/1999/xlink"><clipPath id="a"><path d="m.870117.461426h54.6643v54.2562h-54.6643z"/></clipPath><mask id="b" fill="#000" height="33" maskUnits="userSpaceOnUse" width="33" x="11.7778" y="9.27979"><path d="m11.7778 9.27979h33v33h-33z" fill="#fff"/><path d="m44.2676 26.7562c.0142-.3544-.0455-.708-.1753-1.0385-.1299-.3305-.3271-.6309-.5794-.8822-.2522-.2513-.5541-.4482-.8866-.5783s-.6885-.1906-1.0457-.1778h-7.4907c-.1409-.0306-.2737-.0905-.3895-.1759-.1158-.0853-.212-.1941-.2823-.3191-.3588-1.125-.2974-2.3406.173-3.4244.5218-1.4038.6487-2.9221.3672-4.3921-.2815-1.4699-.9608-2.836-1.9651-3.9519-.5723-.5559-1.2615-.9793-2.0182-1.2395-.7566-.2602-1.562-.3509-2.3582-.2656-.3865.095-.7396.2929-1.0211.5724-.2816.2795-.481.6297-.5768 1.0134-.2004 1.3015.0662 2.6315.7532 3.7578.5417 1.1009.8861 2.2873 1.0178 3.5055.0082.2947-.0773.5843-.2443.8281-.0916.1122-.2083.2016-.3408.2612s-.2772.0879-.4225.0824c-.805-.0346-1.6021.1686-2.2906.584-.6884.4154-1.2373 1.0244-1.5769 1.7495-.3144.4402-.7311.7985-1.2148 1.0447s-1.0201.373-1.5637.3695h-1.1705c-.2351-.3377-.5501-.6128-.9175-.8013s-.7758-.2846-1.1893-.2797h-2.697v1.2526h2.6869c.1768-.0013.3521.0324.5157.0989.1636.0666.3123.1647.4373.2888s.2239.2717.2909.4341c.0671.1624.1009.3362.0995.5117v11.6069c.0014.1754-.0324.3496-.0995.5119-.067.1624-.1659.3098-.2909.4339-.125.124-.2737.2222-.4373.2887-.1636.0666-.3389.1003-.5157.0989h-4.0711v1.2223h4.0711c.3875.0115.7725-.0653 1.1254-.2247.3529-.1593.6643-.3969.9101-.6945v.1717c.7881-.0103 1.5681.159 2.2798.495.1827.1285.3769.2402.5802.3334 1.2132.7599 2.5542 1.2969 3.959 1.5858 1.6163.2068 3.246.2912 4.8752.2525 3.3688 0 7.2363-.1615 7.3991-.1615.3572.0112.713-.0502 1.0454-.1808.3323-.1305.6342-.3275.8869-.5783.2527-.2509.451-.5504.5826-.8802.1315-.3299.1935-.683.1822-1.0376-.0108-.4759-.1592-.9388-.4274-1.3334h.0915c.3549.004.707-.0624 1.0355-.1956s.6268-.3305.8773-.5801c.2504-.2495.448-.5462.581-.8728.1329-.3265.1986-.6762.1932-1.0284-.0059-.6436-.2442-1.2639-.6717-1.7478.3708-.198.6903-.4785.9337-.8195.2433-.3411.4039-.7335.4689-1.1464.0651-.4129.0329-.835-.0939-1.2336-.1268-.3985-.3448-.7625-.637-1.0634.3848-.1857.7071-.4782.9275-.8422.2205-.3641.3296-.784.3142-1.2085zm-3.0533 5.5056h-4.2951v1.2526h3.5317c.3681.0132.7159.1704.9676.4373s.3868.6216.3758.987c-.0102.3719-.1636.7257-.4287.9887-.265.263-.6214.4152-.9961.4254h-4.7123v1.2526h2.4426c.1768-.0013.3521.0324.5157.0989.1637.0666.3123.1647.4374.2888.125.1241.2239.2717.2909.4341.0671.1624.1008.3362.0995.5117-.0116.3757-.1598.7346-.4173 1.0102-.1335.1325-.2923.2374-.467.3085s-.3619.1072-.5507.1058c-2.7785.0808-10.3507.3333-12.0301-.0809-1.2988-.2399-2.5307-.7531-3.613-1.5051-.173-.0808-.4275-.2526-.5903-.3334-.7417-.3578-1.5409-.5833-2.3613-.6667.0741-.1861.1055-.3863.0917-.5859v-11.8594h.7531c.7613-.0009 1.511-.1853 2.1846-.5372.6737-.3519 1.2512-.8608 1.6829-1.4832l.0814-.0809c.245-.514.6424-.9412 1.139-1.2247s1.0687-.4095 1.6395-.361c.3166-.0091.6282-.0808.9166-.2109s.5477-.316.7628-.5468c.2186-.2324.3844-.5086.4862-.8101.1019-.3015.1374-.6212.1041-.9374-.1004-1.4148-.5029-2.7922-1.1807-4.0407-.572-.8303-.8115-1.8425-.6717-2.8387.0261-.1675.1053-.3225.2261-.4424s.2768-.1985.4456-.2244c.5739-.0424 1.1501.0407 1.6881.2431.5381.2025 1.025.5196 1.4263.9288.8523.9455 1.422 2.1081 1.6449 3.3573.223 1.2492.0904 2.5354-.3829 3.7139-.3358 1.091-.8345 3.091-.0813 4.4244.161.2777.3793.5186.6407.7066.2613.188.5598.319.8757.3845h7.6536c.3791.0087.7416.1561 1.0178.4141.1354.1311.2423.2884.3141.4621.0718.1738.1069.3603.1032.548-.0102.3729-.1633.728-.428.9927-.2648.2647-.6214.4191-.9969.4318h-4.7937v1.2526h4.4579c.3791.0087.7416.1562 1.0177.4141.1354.1312.2423.2884.3141.4622.0718.1737.1069.3602.1032.548-.0152.3639-.1684.7089-.4288.9655-.2605.2567-.609.4061-.9757.4185z" fill="#000"/></mask><g clip-path="url(#a)"><path d="m44.2676 26.7562c.0142-.3544-.0455-.708-.1753-1.0385-.1299-.3305-.3271-.6309-.5794-.8822-.2522-.2513-.5541-.4482-.8866-.5783s-.6885-.1906-1.0457-.1778h-7.4907c-.1409-.0306-.2737-.0905-.3895-.1759-.1158-.0853-.212-.1941-.2823-.3191-.3588-1.125-.2974-2.3406.173-3.4244.5218-1.4038.6487-2.9221.3672-4.3921-.2815-1.4699-.9608-2.836-1.9651-3.9519-.5723-.5559-1.2615-.9793-2.0182-1.2395-.7566-.2602-1.562-.3509-2.3582-.2656-.3865.095-.7396.2929-1.0211.5724-.2816.2795-.481.6297-.5768 1.0134-.2004 1.3015.0662 2.6315.7532 3.7578.5417 1.1009.8861 2.2873 1.0178 3.5055.0082.2947-.0773.5843-.2443.8281-.0916.1122-.2083.2016-.3408.2612s-.2772.0879-.4225.0824c-.805-.0346-1.6021.1686-2.2906.584-.6884.4154-1.2373 1.0244-1.5769 1.7495-.3144.4402-.7311.7985-1.2148 1.0447s-1.0201.373-1.5637.3695h-1.1705c-.2351-.3377-.5501-.6128-.9175-.8013s-.7758-.2846-1.1893-.2797h-2.697v1.2526h2.6869c.1768-.0013.3521.0324.5157.0989.1636.0666.3123.1647.4373.2888s.2239.2717.2909.4341c.0671.1624.1009.3362.0995.5117v11.6069c.0014.1754-.0324.3496-.0995.5119-.067.1624-.1659.3098-.2909.4339-.125.124-.2737.2222-.4373.2887-.1636.0666-.3389.1003-.5157.0989h-4.0711v1.2223h4.0711c.3875.0115.7725-.0653 1.1254-.2247.3529-.1593.6643-.3969.9101-.6945v.1717c.7881-.0103 1.5681.159 2.2798.495.1827.1285.3769.2402.5802.3334 1.2132.7599 2.5542 1.2969 3.959 1.5858 1.6163.2068 3.246.2912 4.8752.2525 3.3688 0 7.2363-.1615 7.3991-.1615.3572.0112.713-.0502 1.0454-.1808.3323-.1305.6342-.3275.8869-.5783.2527-.2509.451-.5504.5826-.8802.1315-.3299.1935-.683.1822-1.0376-.0108-.4759-.1592-.9388-.4274-1.3334h.0915c.3549.004.707-.0624 1.0355-.1956s.6268-.3305.8773-.5801c.2504-.2495.448-.5462.581-.8728.1329-.3265.1986-.6762.1932-1.0284-.0059-.6436-.2442-1.2639-.6717-1.7478.3708-.198.6903-.4785.9337-.8195.2433-.3411.4039-.7335.4689-1.1464.0651-.4129.0329-.835-.0939-1.2336-.1268-.3985-.3448-.7625-.637-1.0634.3848-.1857.7071-.4782.9275-.8422.2205-.3641.3296-.784.3142-1.2085zm-3.0533 5.5056h-4.2951v1.2526h3.5317c.3681.0132.7159.1704.9676.4373s.3868.6216.3758.987c-.0102.3719-.1636.7257-.4287.9887-.265.263-.6214.4152-.9961.4254h-4.7123v1.2526h2.4426c.1768-.0013.3521.0324.5157.0989.1637.0666.3123.1647.4374.2888.125.1241.2239.2717.2909.4341.0671.1624.1008.3362.0995.5117-.0116.3757-.1598.7346-.4173 1.0102-.1335.1325-.2923.2374-.467.3085s-.3619.1072-.5507.1058c-2.7785.0808-10.3507.3333-12.0301-.0809-1.2988-.2399-2.5307-.7531-3.613-1.5051-.173-.0808-.4275-.2526-.5903-.3334-.7417-.3578-1.5409-.5833-2.3613-.6667.0741-.1861.1055-.3863.0917-.5859v-11.8594h.7531c.7613-.0009 1.511-.1853 2.1846-.5372.6737-.3519 1.2512-.8608 1.6829-1.4832l.0814-.0809c.245-.514.6424-.9412 1.139-1.2247s1.0687-.4095 1.6395-.361c.3166-.0091.6282-.0808.9166-.2109s.5477-.316.7628-.5468c.2186-.2324.3844-.5086.4862-.8101.1019-.3015.1374-.6212.1041-.9374-.1004-1.4148-.5029-2.7922-1.1807-4.0407-.572-.8303-.8115-1.8425-.6717-2.8387.0261-.1675.1053-.3225.2261-.4424s.2768-.1985.4456-.2244c.5739-.0424 1.1501.0407 1.6881.2431.5381.2025 1.025.5196 1.4263.9288.8523.9455 1.422 2.1081 1.6449 3.3573.223 1.2492.0904 2.5354-.3829 3.7139-.3358 1.091-.8345 3.091-.0813 4.4244.161.2777.3793.5186.6407.7066.2613.188.5598.319.8757.3845h7.6536c.3791.0087.7416.1561 1.0178.4141.1354.1311.2423.2884.3141.4621.0718.1738.1069.3603.1032.548-.0102.3729-.1633.728-.428.9927-.2648.2647-.6214.4191-.9969.4318h-4.7937v1.2526h4.4579c.3791.0087.7416.1562 1.0177.4141.1354.1312.2423.2884.3141.4622.0718.1737.1069.3602.1032.548-.0152.3639-.1684.7089-.4288.9655-.2605.2567-.609.4061-.9757.4185z" fill="#fff"/><g stroke="#fff" stroke-linejoin="round"><path d="m44.2676 26.7562c.0142-.3544-.0455-.708-.1753-1.0385-.1299-.3305-.3271-.6309-.5794-.8822-.2522-.2513-.5541-.4482-.8866-.5783s-.6885-.1906-1.0457-.1778h-7.4907c-.1409-.0306-.2737-.0905-.3895-.1759-.1158-.0853-.212-.1941-.2823-.3191-.3588-1.125-.2974-2.3406.173-3.4244.5218-1.4038.6487-2.9221.3672-4.3921-.2815-1.4699-.9608-2.836-1.9651-3.9519-.5723-.5559-1.2615-.9793-2.0182-1.2395-.7566-.2602-1.562-.3509-2.3582-.2656-.3865.095-.7396.2929-1.0211.5724-.2816.2795-.481.6297-.5768 1.0134-.2004 1.3015.0662 2.6315.7532 3.7578.5417 1.1009.8861 2.2873 1.0178 3.5055.0082.2947-.0773.5843-.2443.8281-.0916.1122-.2083.2016-.3408.2612s-.2772.0879-.4225.0824c-.805-.0346-1.6021.1686-2.2906.584-.6884.4154-1.2373 1.0244-1.5769 1.7495-.3144.4402-.7311.7985-1.2148 1.0447s-1.0201.373-1.5637.3695h-1.1705c-.2351-.3377-.5501-.6128-.9175-.8013s-.7758-.2846-1.1893-.2797h-2.697v1.2526h2.6869c.1768-.0013.3521.0324.5157.0989.1636.0666.3123.1647.4373.2888s.2239.2717.2909.4341c.0671.1624.1009.3362.0995.5117v11.6069c.0014.1754-.0324.3496-.0995.5119-.067.1624-.1659.3098-.2909.4339-.125.124-.2737.2222-.4373.2887-.1636.0666-.3389.1003-.5157.0989h-4.0711v1.2223h4.0711c.3875.0115.7725-.0653 1.1254-.2247.3529-.1593.6643-.3969.9101-.6945v.1717c.7881-.0103 1.5681.159 2.2798.495.1827.1285.3769.2402.5802.3334 1.2132.7599 2.5542 1.2969 3.959 1.5858 1.6163.2068 3.246.2912 4.8752.2525 3.3688 0 7.2363-.1615 7.3991-.1615.3572.0112.713-.0502 1.0454-.1808.3323-.1305.6342-.3275.8869-.5783.2527-.2509.451-.5504.5826-.8802.1315-.3299.1935-.683.1822-1.0376-.0108-.4759-.1592-.9388-.4274-1.3334h.0915c.3549.004.707-.0624 1.0355-.1956s.6268-.3305.8773-.5801c.2504-.2495.448-.5462.581-.8728.1329-.3265.1986-.6762.1932-1.0284-.0059-.6436-.2442-1.2639-.6717-1.7478.3708-.198.6903-.4785.9337-.8195.2433-.3411.4039-.7335.4689-1.1464.0651-.4129.0329-.835-.0939-1.2336-.1268-.3985-.3448-.7625-.637-1.0634.3848-.1857.7071-.4782.9275-.8422.2205-.3641.3296-.784.3142-1.2085zm-3.0533 5.5056h-4.2951v1.2526h3.5317c.3681.0132.7159.1704.9676.4373s.3868.6216.3758.987c-.0102.3719-.1636.7257-.4287.9887-.265.263-.6214.4152-.9961.4254h-4.7123v1.2526h2.4426c.1768-.0013.3521.0324.5157.0989.1637.0666.3123.1647.4374.2888.125.1241.2239.2717.2909.4341.0671.1624.1008.3362.0995.5117-.0116.3757-.1598.7346-.4173 1.0102-.1335.1325-.2923.2374-.467.3085s-.3619.1072-.5507.1058c-2.7785.0808-10.3507.3333-12.0301-.0809-1.2988-.2399-2.5307-.7531-3.613-1.5051-.173-.0808-.4275-.2526-.5903-.3334-.7417-.3578-1.5409-.5833-2.3613-.6667.0741-.1861.1055-.3863.0917-.5859v-11.8594h.7531c.7613-.0009 1.511-.1853 2.1846-.5372.6737-.3519 1.2512-.8608 1.6829-1.4832l.0814-.0809c.245-.514.6424-.9412 1.139-1.2247s1.0687-.4095 1.6395-.361c.3166-.0091.6282-.0808.9166-.2109s.5477-.316.7628-.5468c.2186-.2324.3844-.5086.4862-.8101.1019-.3015.1374-.6212.1041-.9374-.1004-1.4148-.5029-2.7922-1.1807-4.0407-.572-.8303-.8115-1.8425-.6717-2.8387.0261-.1675.1053-.3225.2261-.4424s.2768-.1985.4456-.2244c.5739-.0424 1.1501.0407 1.6881.2431.5381.2025 1.025.5196 1.4263.9288.8523.9455 1.422 2.1081 1.6449 3.3573.223 1.2492.0904 2.5354-.3829 3.7139-.3358 1.091-.8345 3.091-.0813 4.4244.161.2777.3793.5186.6407.7066.2613.188.5598.319.8757.3845h7.6536c.3791.0087.7416.1561 1.0178.4141.1354.1311.2423.2884.3141.4621.0718.1738.1069.3603.1032.548-.0102.3729-.1633.728-.428.9927-.2648.2647-.6214.4191-.9969.4318h-4.7937v1.2526h4.4579c.3791.0087.7416.1562 1.0177.4141.1354.1312.2423.2884.3141.4622.0718.1737.1069.3602.1032.548-.0152.3639-.1684.7089-.4288.9655-.2605.2567-.609.4061-.9757.4185z" mask="url(#b)" stroke-width=".5"/><path d="m27.5356.336426c-.069 0-.125.055964-.125.125v5.343794c0 .06904.056.125.125.125h1.2621c.069 0 .125-.05596.125-.125v-5.343794c0-.069036-.056-.125-.125-.125z" fill="#fff" stroke-width=".25"/><path d="m13.9596 4.33287c-.0599.03432-.0803.11052-.0456.1702l2.6919 4.62768c.0347.05968.1114.08023.1713.0459l1.0929-.6263c.0599-.03432.0804-.11052.0456-.1702l-2.6918-4.62768c-.0348-.05968-.1114-.08023-.1713-.0459z" fill="#fff" stroke-width=".25"/><path d="m3.89435 14.5064c-.03459.0598-.01402.1359.04594.1701l4.68411 2.672c.05997.0342.13662.0135.17121-.0463l.63102-1.0898c.03459-.0597.01402-.1359-.04595-.1701l-4.6841-2.6719c-.05997-.0342-.13662-.0135-.17122.0463z" fill="#fff" stroke-width=".25"/><path d="m.870117 26.8027c-.069035 0-.125.056-.125.125v1.2526c0 .0691.055965.125.125.125h5.383993c.06903 0 .125-.0559.125-.125v-1.2526c0-.069-.05597-.125-.125-.125z" fill="#fff" stroke-width=".25"/><path d="m4.3507 40.371c-.05989.0343-.08029.1105-.04557.1702l.6312 1.0846c.03472.0597.11142.0803.17132.0459l4.66223-2.6727c.0599-.0343.0803-.1105.04558-.1702l-.6312-1.0847c-.03473-.0597-.11143-.0802-.17132-.0459z" fill="#fff" stroke-width=".25"/><path d="m13.8808 50.6815c-.0347.0597-.0143.1359.0456.1702l1.0929.6263c.0599.0343.1366.0138.1714-.0459l2.692-4.6279c.0347-.0597.0143-.1359-.0456-.1702l-1.093-.6263c-.0599-.0343-.1366-.0138-.1713.0459z" fill="#fff" stroke-width=".25"/><path d="m27.5356 49.2588c-.069 0-.125.056-.125.125v5.3438c0 .069.056.125.125.125h1.2621c.069 0 .125-.056.125-.125v-5.3438c0-.069-.056-.125-.125-.125z" fill="#fff" stroke-width=".25"/><path d="m46.8027 38.9486c-.0347.0597-.0143.1359.0456.1702l4.6627 2.6719c.0599.0343.1366.0138.1713-.0459l.631-1.0848c.0347-.0597.0143-.1359-.0456-.1702l-4.6627-2.6719c-.0599-.0344-.1366-.0138-.1713.0459z" fill="#fff" stroke-width=".25"/><path d="m38.8185 47.1526c-.0539.0433-.0621.1217-.0185.1752l3.3878 4.1533c.0437.0535.1227.0618.1765.0186l.9809-.7882c.0538-.0433.0621-.1217.0184-.1752l-3.3878-4.1533c-.0436-.0535-.1226-.0618-.1764-.0186z" fill="#fff" stroke-width=".25"/><path d="m50.1606 26.8027c-.069 0-.125.056-.125.125v1.2526c0 .0691.056.125.125.125h5.384c.0691 0 .125-.0559.125-.125v-1.2526c0-.069-.0559-.125-.125-.125z" fill="#fff" stroke-width=".25"/><path d="m46.9537 15.869c-.0599.0343-.0803.1106-.0455.1702l.6312 1.0847c.0347.0597.1114.0802.1713.0459l4.6622-2.6727c.0598-.0344.0802-.1106.0455-.1702l-.6312-1.0847c-.0347-.0597-.1114-.0802-.1713-.0459z" fill="#fff" stroke-width=".25"/><path d="m38.539 8.286c-.0347.05967-.0143.13587.0456.17019l1.093.6263c.0598.03433.1365.01378.1713-.0459l2.6919-4.62784c.0347-.05967.0143-.13587-.0456-.1702l-1.0929-.6263c-.0599-.03432-.1366-.01377-.1713.0459z" fill="#fff" stroke-width=".25"/></g></g></svg>