<svg fill="none" height="45" viewBox="0 0 45 45" width="45" xmlns="http://www.w3.org/2000/svg" xmlns:xlink="http://www.w3.org/1999/xlink"><clipPath id="a"><path d="m0 0h44.47v44.47h-44.47z"/></clipPath><g clip-path="url(#a)" fill="#fff"><path d="m44.1598 41.81-2.08-1.3901c-.0772-.0559-.165-.0953-.258-.116-.0931-.0207-.1893-.0224-.2829-.0046-.0937.0178-.1826.0545-.2616.1079-.0789.0534-.1461.1223-.1975.2026-.0573.0767-.098.1645-.1196.2578-.0215.0933-.0234.1902-.0055.2842.0179.0941.0551.1833.1094.2622.0542.0789.1243.1455.2057.1958l.18.1101h-5.7v-25.7099c0-.3687-.1464-.7223-.4071-.9829-.2607-.2607-.6142-.4073-.9829-.4073h-3.47c-.3686 0-.7222.1466-.9828.4073-.2607.2606-.4072.6142-.4072.9829v25.7099h-1.39v-19.52c0-.3686-.1464-.7222-.4071-.9829s-.6142-.407-.9829-.407h-3.47c-.3687 0-.7222.1463-.9829.407-.2606.2607-.4071.6143-.4071.9829v19.45h-1.4v-13.2c0-.3686-.1464-.7222-.4071-.9829s-.6142-.407-.9829-.407h-3.48c-.3686 0-.7222.1463-.9829.407s-.4071.6143-.4071.9829v13.2h-1.39v-7.2901c0-.3686-.1464-.7222-.4071-.9829s-.6142-.407-.9829-.407h-3.46999c-.36866 0-.72218.1463-.98285.407-.26068.2607-.40717.6143-.40717.9829v7.2901h-3.81995v-38.69999l.10999.16992c.0454.08697.10857.16362.18542.22461.07686.06098.16567.10494.26069.12939.09501.02445.19408.02877.29083.01245.09674-.01631.18901-.05292.27075-.10717.08174-.05426.15114-.12495.20374-.20777s.0872-.1759.10156-.27295.00817-.19602-.01819-.29053c-.02636-.0945-.07231-.18244-.13483-.25805l-1.39001-2.079836c-.04924-.08265-.11546-.154066-.19428-.2092284-.07882-.05516279-.16842-.0928818-.26294-.1108398-.09451-.0179581-.19178-.0155743-.28534.0068359-.09356.0224103-.18132.0642162-.25744.1230469-.0803.0472304-.14867.1124104-.19995.1901854l-1.3900176 2.079836c-.0540068.0783-.0917054.16684-.1109009.26001-.0191955.09316-.0195095.18919-.0008545.28247.0186553.09327.0558839.18188.1094361.2605.0535521.07861.1223619.14551.2023319.19702.077314.05687.165641.09712.259338.11792.093697.02079.190678.02175.28479.00293s.183288-.05708.261777-.11231c.07849-.05523.1446-.12626.19409-.20849l.12-.16992v39.39986c0 .183.07269.3587.20209.4881s.30491.2021.48791.2021h39.41997l-.18.1199c-.0803.0513-.1492.1186-.2026.1975s-.0901.1679-.1079.2615-.0163.1899.0044.2829c.0208.0931.0603.1809.1161.2581.0525.0789.12.1467.1986.1995.0787.0527.167.0895.2599.1081s.1885.0187.2815.0003c.0929-.0185.1813-.0553.26-.108l2.08-1.3898c.0803-.0514.1493-.1186.2027-.1976.0534-.0789.0901-.1678.1079-.2614.0178-.0937.0163-.19-.0045-.283-.0207-.093-.0602-.1808-.1161-.258-.0532-.0762-.1212-.1408-.2-.19zm-36.16996-.1201v-7.29h3.46996v7.29zm7.63996 0v-13.2h3.48v13.2zm7.65 0v-19.49h3.47v19.45zm7.64 0v-25.71h3.47v25.71z"/><path d="m7.98998 31.62c.09146 0 .18198-.0182.26636-.0535.08437-.0353.16089-.0869.2251-.1521.0642-.0651.11478-.1424.14886-.2273.03408-.0848.05095-.1756.04962-.2671 0-.27.11005-6.6499 6.86008-6.6499.0901.0014.1796-.0152.2633-.0488.0836-.0336.1598-.0834.224-.1467s.1151-.1388.1499-.2219c.0348-.0832.0528-.1726.0528-.2627.0736-1.6612.7909-3.2284 2-4.3699 1.18-.95 2.86-1.2201 5-.8101.0893.0174.1811.0171.2703-.0012.0891-.0183.1738-.0541.2491-.1052s.1397-.1165.1896-.1926c.0498-.0762.0842-.1616.101-.251 0 0 0-.0699 0-.0999.1207-1.7188.9019-3.3243 2.18-4.48 1.26-1 2.9999-1.2099 5.2199-.7299.1666.0344.3399.0078.4886-.0747.1486-.0826.2627-.216.3214-.3755.3773-.8331.9758-1.5467 1.7304-2.0633.7547-.51657 1.6365-.8164 2.5497-.86666-.0421.1447-.0355.29928.0185.43994.0541.14066.1526.25976.2807.33911.1281.07931.2787.11461.4287.10031.15-.0142.2912-.07735.4021-.17941l1.3999-1.29004c.0678-.06445.1218-.14183.1587-.22778.0368-.08596.0559-.17869.0559-.27222s-.0191-.18602-.0559-.27197c-.0369-.08596-.0909-.16358-.1587-.22803-.0633-.0728-.1418-.13075-.23-.16992l-1.7399-.77002c-.0826-.03807-.1719-.05906-.2627-.06201-.0909-.00296-.1814.01229-.2663.04492-.0848.03263-.1622.08195-.2277.14502s-.1176.1386-.1534.22217c-.0582.12893-.0759.27238-.0509.41162.0249.13924.0915.26777.1909.36841-1.0645.08088-2.0926.42358-2.9928.99755s-1.6446 1.36151-2.1671 2.29251c-.9928-.2386-2.0248-.2641-3.0281-.0745-1.0032.1896-1.9548.5899-2.7919 1.1743-1.4266 1.2055-2.3622 2.8917-2.63 4.74-.9362-.1828-1.9002-.1679-2.8301.044-.93.2118-1.8054.6158-2.57 1.186-1.3726 1.2247-2.2361 2.9196-2.42 4.75-7.51996.41-7.60994 7.94-7.60994 8-.00551.0961.00884.1924.04217.2827.03334.0903.08492.1728.15155.2422s.14689.1243.23572.1614c.08883.037.18435.0552.28058.0537z"/></g></svg>