<svg fill="none" height="49" viewBox="0 0 52 49" width="52" xmlns="http://www.w3.org/2000/svg" xmlns:xlink="http://www.w3.org/1999/xlink"><clipPath id="a"><path d="m1 0h48.82v48.74h-48.82z"/></clipPath><g clip-path="url(#a)" fill="#fff"><path d="m17.0203 23.6602c-.2025.0027-.3958.0849-.5381.229-.1422.1442-.2219.3386-.2219.5411-.0044 1.3851.3069 2.753.91 4 .0434.0906.104.1716.1787.2387.0748.0672.162.1189.2568.1524.0947.0334.1949.0478.2952.0425.1003-.0054.1986-.0304.2892-.0738.0906-.0433.1719-.104.239-.1787.0672-.0747.1188-.1619.1523-.2566.0334-.0947.0479-.1951.0426-.2954-.0054-.1003-.0305-.1987-.0739-.2893-.5007-1.0315-.7605-2.1634-.7599-3.3101.0055-.1039-.0105-.2078-.0468-.3054-.0364-.0975-.0924-.1867-.1646-.2617s-.159-.1343-.2551-.1743c-.0961-.0401-.1994-.0599-.3035-.0584z"/><path d="m3.7703 31.8702c-.03466-.0966-.08805-.1855-.15711-.2615-.06905-.0759-.15246-.1375-.24536-.1811-.0929-.0437-.19347-.0686-.29602-.0733-.10254-.0047-.205.011-.30151.0459-.09827.0323-.1889.0843-.26636.1529-.07746.0685-.1402.1522-.1842.2458-.04401.0936-.06843.1952-.07178.2986-.00336.1034.01441.2065.05224.3027.43872 1.2721.98064 2.5061 1.62012 3.69.10168.1631.25929.2834.44336.3386.18408.0552.38199.0416.55664-.0386.17012-.095.29655-.2525.35254-.4392.056-.1866.0371-.3878-.05261-.5608-.58109-1.1306-1.06608-2.3081-1.44995-3.52z"/><path d="m7.35986 38.4897c-.06155-.079-.13817-.145-.22535-.1943-.08717-.0494-.18315-.081-.28259-.093-.09944-.0121-.2003-.0046-.29675.0224-.09646.0271-.18658.073-.26526.135-.08017.0607-.14739.137-.19751.2242-.05012.0871-.08211.1833-.09424.2832-.01213.0998-.0041.2012.02368.2978.02779.0967.07477.1868.13806.2649.82331 1.0756 1.73658 2.0792 2.72998 3 .14639.1371.33936.2131.53992.2131s.39365-.076.54004-.2131c.14166-.144.22106-.338.22106-.54 0-.2021-.0794-.396-.22106-.5401-.95109-.876-1.82436-1.833-2.60998-2.8601z"/><path d="m16.2402 45.3798c-1.1591-.5044-2.273-1.1067-3.33-1.8-.084-.0545-.1781-.0919-.2766-.1101s-.1995-.0168-.2975.0041c-.1978.0422-.3709.1614-.4809.3311-.1101.1697-.1482.3761-.106.574.0422.1978.1612.3709.3309.4809 1.127.7393 2.3146 1.3815 3.5501 1.9199.1856.0809.3957.0849.5842.0108s.3399-.2201.4208-.4058c.0809-.1856.0847-.3957.0106-.5842s-.22-.3398-.4056-.4207z"/><path d="m4.23005 13.8598c.17389.0848.3733.101.55859.0454s.34288-.1789.44141-.3454c.60068-1.1101 1.28962-2.1701 2.06006-3.1699.12465-.1592.18087-.3614.15649-.56206s-.12737-.38341-.2865-.50806-.36135-.18087-.56201-.15649-.3834.12725-.50806.28638c-.82398 1.06503-1.5597 2.19553-2.19995 3.38013-.08891.1742-.10625.3762-.04834.563s.18642.3436.35828.437z"/><path d="m2.83997 28.21c-.20828-1.2425-.31191-2.5003-.30994-3.76-.00263-.2025-.08501-.3956-.22913-.5379-.14412-.1422-.33839-.2222-.54089-.2222-.20156 0-.39495.0802-.53748.2227-.14252.1425-.22253.3358-.22253.5374.00417 1.3403.11785 2.6781.33997 4 .01707.0984.05334.1928.10681.2773.05346.0845.12312.1575.20483.2151.08172.0576.17396.0984.27149.1203.09752.022.19838.0244.29687.0074.09849-.0171.19264-.0535.2771-.107.08446-.0534.15764-.1228.21521-.2046.05757-.0817.09844-.1739.12036-.2714.02192-.0976.0244-.1987.00733-.2972z"/><path d="m9.35997 7.79972c.19187-.00131.37673-.07235.52002-.19995.93441-.8546 1.93781-1.63064 3.00001-2.32007.0963-.04923.181-.11821.2489-.20239.0678-.08419.1172-.18161.1449-.28614.0277-.10452.033-.21383.0156-.32055-.0173-.10673-.0569-.20843-.1162-.29883s-.137-.16745-.228-.22583-.1934-.09682-.3003-.11304-.216-.0097-.3202.01904c-.1042.02875-.2012.07898-.2847.14771-1.1209.74107-2.18097 1.57035-3.17002 2.47998-.14702.13563-.2355.32324-.2467.52295s.05571.39591.18665.54712c.07428.07932.16424.14253.26403.18555.0998.04301.20737.06491.31604.06445z"/><path d="m1.95002 21.3098c.09923.0172.20092.0144.29908-.008.09815-.0225.19082-.0642.2727-.1228.08188-.0587.15131-.1331.20422-.2188.05292-.0857.08825-.1808.10401-.2803.20127-1.2441.50911-2.4687.92004-3.6601.04044-.1851.01116-.3786-.08215-.5435s-.24408-.2897-.42359-.3503c-.1795-.0607-.3751-.053-.54931.0215s-.31488.2106-.39502.3823c-.43879 1.2741-.77323 2.5816-1 3.9099-.01554.0999-.01086.2021.01355.3003.02441.0981.06812.1905.12866.2715s.13667.1492.22388.2004c.0872.0513.18369.0845.28393.0979z"/><path d="m25.4099 16.78c.5654-.0016 1.1291.0621 1.6799.1899.0978.0217.199.024.2977.0066s.193-.0543.2775-.1082c.0845-.0538.1575-.1237.215-.2058.0574-.0821.0982-.1746.1198-.2724.0217-.0979.0239-.1992.0065-.2979s-.0542-.1928-.108-.2773c-.0539-.0845-.1239-.1577-.206-.2151-.0821-.0575-.1746-.0982-.2724-.1199-.6564-.1479-1.3272-.2216-2-.22-.6933-.0043-1.3848.0729-2.0601.23-.1813.0424-.3407.1501-.448.3023-.1073.1521-.155.3384-.134.5234s.1092.3559.2478.4802.3181.1933.5043.1941h.1699c.5639-.1317 1.141-.1988 1.7201-.1999z"/><path d="m27.2802 33.31c.0596.0099.1203.0099.1799 0 1.3391-.3031 2.591-.9085 3.6601-1.77.0781-.0656.1425-.146.1895-.2366.0471-.0905.0759-.1895.0847-.2912.0089-.1017-.0024-.2042-.0332-.3015-.0307-.0973-.0804-.1875-.1461-.2656-.0656-.0782-.146-.1427-.2365-.1897-.0906-.0471-.1896-.0757-.2913-.0845s-.2041.0024-.3014.0332c-.0973.0307-.1876.0803-.2657.146-.8779.7097-1.9027 1.2152-3 1.48-.1967.0454-.3676.1662-.4761.3364s-.1458.376-.1039.5735c.0507.159.1487.2988.2809.4006.1322.1019.2924.161.4591.1694z"/><path d="m30.1501 18.4301c.8945.7111 1.6188 1.613 2.12 2.6399.092.1737.2455.3068.4304.3733.1849.0666.388.062.5696-.0132.177-.0885.3131-.2417.3801-.4279.0671-.1862.0599-.3911-.0201-.5721-.6073-1.2365-1.4818-2.3228-2.5601-3.1801-.1591-.1247-.3612-.1809-.5619-.1565-.2006.0243-.3834.1275-.508.2866-.1247.1591-.181.3611-.1566.5618.0243.2006.1274.3834.2866.508z"/><path d="m20.6401 18.4598c.1588-.1276.2605-.3127.283-.5151s-.0361-.4054-.163-.5647c-.063-.0776-.1406-.142-.2285-.1895s-.1843-.0772-.2837-.0874-.1998-.0008-.2955.0278c-.0957.0287-.1849.0759-.2623.139-1.0754.8592-1.9434 1.9494-2.54 3.1899-.0433.0906-.0685.189-.0738.2893-.0054.1003.0092.2007.0426.2954s.0851.1819.1522.2566.1484.1354.239.1787c.0906.0434.1889.0684.2892.0738.1003.0053.2007-.0091.2954-.0425.0947-.0335.1819-.0852.2566-.1524.0747-.0671.1355-.1481.1788-.2387.4944-1.0341 1.2156-1.9435 2.11-2.6602z"/><path d="m33.7998 23.6299c-.2034.0052-.3966.0896-.5385.2353-.142.1458-.2214.3413-.2214.5447.0027 1.1458-.2537 2.2771-.75 3.3098-.0833.1795-.0934.3843-.028.5711.0653.1867.201.3406.378.4289.1816.0752.3847.08.5696.0135.1849-.0666.3384-.1997.4304-.3733.6028-1.2471.9139-2.6149.9099-4-.0026-.1999-.0838-.3907-.226-.531-.1423-.1404-.334-.2191-.5339-.219z"/><path d="m19.7099 31.5701c1.0728.8432 2.3195 1.4375 3.6501 1.7399.1986.0422.4059.0051.5777-.1032s.2946-.2794.3423-.4768c.0419-.1975.0045-.4033-.104-.5735s-.2794-.291-.4761-.3364c-1.1174-.254-2.1632-.7564-3.0599-1.47-.1578-.1326-.3619-.197-.5673-.1792-.2053.0178-.3951.1163-.5277.2742-.1326.1578-.1971.3617-.1793.5671.0178.2053.1165.3952.2743.5278z"/><path d="m30.9701 2.19983c1.2235.31186 2.4205.72001 3.5799 1.22022.0919.04005.1909.0614.2911.06323.1003.00183.1999-.01606.2933-.05274.0933-.03667.1785-.09128.2507-.16088s.1299-.15271.1699-.24463c.0401-.09193.0617-.19101.0635-.29126.0018-.10026-.0161-.19989-.0527-.29322-.0367-.09332-.0915-.17855-.1611-.25073s-.1527-.12987-.2446-.16992c-1.2355-.53738-2.5132-.97223-3.8201-1.300049-.1975-.048411-.4062-.016542-.5804.088379-.1742.104922-.2999.27443-.3495.47168-.0238.09719-.0283.19822-.013.29712.0152.0989.0499.19382.1019.2793s.1204.15977.2013.21875c.0808.05897.1725.1013.2698.12475z"/><path d="m37.94 43.57c-1.057.6874-2.1671 1.2894-3.32 1.8-.092.0391-.1753.0962-.245.168-.0696.0717-.1243.1566-.1606.2497-.0364.0932-.0537.1928-.051.2928.0026.0999.0253.1984.0666.2895.0811.1842.232.3285.4194.4016.1875.0731.3962.0689.5806-.0117 1.2323-.5385 2.4166-1.1808 3.54-1.9199.0843-.0537.1569-.1239.2138-.2061.0568-.0822.0967-.1749.1172-.2727s.0212-.1987.0022-.2968c-.0191-.0982-.0575-.1914-.1132-.2745-.0527-.0853-.1223-.1591-.2045-.2168-.0821-.0576-.1751-.0978-.2733-.1184-.0982-.0205-.1996-.021-.2979-.0012-.0984.0198-.1918.0595-.2743.1165z"/><path d="m31.0502 46.6002c-1.2258.3012-2.4727.5084-3.73.6199-.0999.0075-.1973.0349-.2866.0803-.0894.0454-.1689.1079-.2339.1841-.0651.0762-.1145.1646-.1453.26-.0308.0953-.0424.1958-.0342.2956.025.1997.1243.3827.2781.5125.1538.1297.3509.1966.5519.1875 1.3497-.1111 2.6877-.3351 4-.6699.1821-.0605.3346-.1876.4269-.3558.0923-.1681.1175-.3649.0706-.551-.0468-.186-.1622-.3477-.3231-.4521-.1609-.1045-.3554-.1441-.5444-.1111z"/><path d="m23.3601 1.60983h.06c1.2578-.10499 2.5221-.10499 3.7799 0 .1932-.00091.379-.07433.5205-.20581.1416-.13147.2285-.31133.2436-.503902.0151-.192575-.0427-.383958-.162-.535889s-.2914-.253407-.4821-.284424c-1.3311-.1083598-2.6688-.1083598-4 0-.2015.0092826-.3911.098223-.5271.247314-.1359.149092-.2071.346043-.1979.547608.0093.201563.0983.391133.2474.527103.1491.13596.3461.20728.5477.19799z"/><path d="m37.8802 5.2096c1.0601.69234 2.0633 1.4682 3 2.32007.1464.13709.3395.21338.54.21338.2006 0 .3935-.07629.5399-.21338.1417-.14402.2211-.338.2211-.54004 0-.20203-.0794-.39601-.2211-.54003-.9926-.90655-2.0559-1.73247-3.1799-2.46998-.0844-.05542-.179-.09337-.2783-.11181s-.2013-.01702-.2999.00439c-.0987.02142-.1922.06243-.2749.12036-.0828.05794-.1531.13162-.207.21704-.0551.08364-.093.17762-.1113.27613s-.0167.19973.0048.29761c.0214.09787.0622.19038.12.27221s.1314.1512.2165.2041z"/><path d="m49.8199 24.3098c0-.2016-.08-.3948-.2225-.5373-.1425-.1426-.3359-.2227-.5375-.2227s-.3948.0801-.5373.2227c-.1426.1425-.2227.3357-.2227.5373v.0801c-.0034 1.2629-.107 2.5235-.3099 3.77-.0286.2041.0247.4113.1484.5762s.3076.274.5116.3037h.09c.1806-.0001.3554-.0646.4929-.1819.1374-.1173.2285-.2796.2571-.458.2188-1.3221.3291-2.6599.3299-4z"/><path d="m48.0303 31.3599c-.0972-.0348-.2002-.0498-.3032-.0445-.1031.0054-.204.0311-.297.0757-.0931.0447-.1763.1073-.2449.1843-.0686.0771-.1213.1669-.1549.2644-.408 1.1927-.9131 2.3498-1.51 3.46-.0897.173-.1086.3741-.0526.5608.0559.1866.1824.3442.3525.4392.1754.0816.375.0949.5598.0376s.3416-.1812.4402-.3477c.6413-1.1829 1.1832-2.4171 1.62-3.6899.0361-.097.0524-.2003.0477-.3037-.0047-.1035-.0302-.205-.0751-.2983-.0448-.0934-.108-.1768-.1857-.2452-.0778-.0683-.1686-.1203-.2669-.1528z"/><path d="m44.5498 38.31c-.0787-.062-.1688-.1078-.2653-.1348-.0964-.027-.1973-.0348-.2967-.0227s-.1954.0437-.2826.093c-.0872.0494-.1638.1153-.2253.1944-.7767.9944-1.6328 1.9241-2.56 2.78-.1417.144-.2212.338-.2212.54 0 .2021.0795.396.2212.5401.1453.1393.3387.217.5399.217.2013 0 .3948-.0777.5401-.217.9907-.9235 1.9038-1.9268 2.73-3 .062-.0787.1078-.169.1348-.2654.0271-.0965.0347-.1972.0226-.2966-.0121-.0995-.0436-.1956-.093-.2828-.0493-.0871-.1154-.1638-.1944-.2253z"/><path d="m15.8602 3.52967c.1063.00052.2117-.01992.3101-.06006 1.1548-.50831 2.3486-.92296 3.5699-1.23999.1946-.04956.3618-.17405.4648-.34644.1031-.17239.1337-.37858.0852-.57349-.0496-.19724-.1753-.366753-.3496-.471675-.1742-.104921-.3829-.13679-.5804-.088379-1.3027.339224-2.5767.780654-3.8101 1.320064-.1823.08315-.3251.23417-.3979.4209s-.0699.39445.008.5791c.0628.13388.1614.24766.285.32886.1235.0812.2672.12661.415.13111z"/><path d="m45.5102 13.4499c.0968.1777.2603.3098.4544.367s.403.035.5806-.0618c.1777-.0968.3097-.2603.3669-.4544s.0349-.4031-.0619-.5808c-.6485-1.1778-1.3908-2.3014-2.22-3.35983-.1246-.15913-.3074-.26225-.508-.28663-.2007-.02438-.4029.03185-.5621.1565-.1591.12465-.2621.30739-.2865.50806-.0243.20066.0319.4029.1565.562.7767.9925 1.4724 2.0458 2.0801 3.1499z"/><path d="m47.9702 20.5601c.0367.1985.1489.375.313.4925s.3673.1667.567.1374c.0994-.0157.1948-.0511.2805-.104s.1599-.1222.2185-.2041.1004-.1745.1229-.2727c.0225-.0981.0252-.1998.0081-.2991-.2271-1.3249-.5615-2.6291-1-3.8999-.0328-.0945-.084-.1818-.1505-.2565-.0665-.0748-.1471-.1358-.2372-.1795-.0901-.0436-.1878-.0691-.2877-.0749-.0999-.0059-.2.0079-.2946.0407-.0945.0329-.1817.0842-.2565.1507-.0747.0665-.1358.147-.1794.237-.0436.0901-.0691.1879-.075.2879-.0058.0999.0081.2001.0409.2946.4093 1.1892.7203 2.4099.93 3.6499z"/><path d="m23.5401 47.2199c-1.2577-.1032-2.5051-.307-3.7301-.6099-.0992-.0329-.2042-.0451-.3083-.0356s-.2051.0403-.2967.0906c-.0917.0503-.172.1189-.2359.2016-.0639.0828-.1101.1777-.1356.2791s-.0298.2069-.0127.3101c.0172.1031.0554.2016.1123.2893.0569.0876.1313.1628.2185.2204.0873.0576.1854.0966.2884.1145 1.3128.3302 2.6507.5509 4 .6599.0998.0079.2002-.004.2954-.0349s.1835-.0802.2596-.1452c.0762-.065.1388-.1443.1842-.2334.0455-.0892.073-.1866.0808-.2864.0079-.0998-.004-.2002-.0349-.2954-.0309-.0953-.0802-.1834-.1452-.2596-.065-.0761-.1444-.1388-.2336-.1843s-.1865-.0729-.2863-.0808z"/><path d="m9.85982 18.6301c.18618.0747.39388.0748.58008.0003s.3366-.218.4199-.4004c.7881-1.8795 1.948-3.5802 3.4101-5 2.5034-2.416 5.7262-3.95005 9.1799-4.36989l-.87.86987c-.1394.14524-.2172.33872-.2172.54002s.0778.3948.2172.5401c.1452.1393.3388.217.54.217.2013 0 .3948-.0777.5401-.217.11-.12 2.1999-2.18014 2.3399-2.35014.0905-.10865.1494-.24001.1701-.37988.0103-.11615-.004-.23324-.0419-.34351s-.0986-.21139-.1782-.29663l-2.2899-2.28979c-.0707-.07136-.1549-.1281-.2476-.16675-.0927-.03866-.192-.0586-.2925-.0586-.1004 0-.1999.01994-.2926.0586-.0927.03865-.1767.09539-.2474.16675-.1394.14524-.2172.33852-.2172.53979 0 .20128.0778.3948.2172.54004l1.0801 1.07007c-3.9328.38749-7.6191 2.09325-10.4601 4.84005-1.6012 1.5521-2.8762 3.4084-3.75001 5.46-.04265.0943-.06586.1961-.06824.2996-.00238.1034.01617.2063.05444.3024.03827.0962.09552.1836.16834.2571s.15972.1317.25549.1709z"/><path d="m19.6301 39.96c.0747-.1862.0748-.3939.0003-.5801s-.2178-.3367-.4003-.4199c-1.8804-.7864-3.5814-1.9464-5-3.41-1.432-1.4683-2.5602-3.2049-3.3199-5.1101-.6322-1.5666-1.01026-3.224-1.12004-4.9099l.93994.94c.0707.0713.1548.1281.2474.1667.0927.0387.1922.0586.2926.0586.1005 0 .1998-.0199.2925-.0586.0927-.0386.1768-.0954.2475-.1667.071-.0698.1274-.153.166-.2449.0385-.0919.0584-.1904.0584-.29s-.0199-.1982-.0584-.2901c-.0386-.0918-.095-.175-.166-.2449l-2.28996-2.29c-.07066-.0713-.15475-.1281-.24743-.1667-.09269-.0387-.19218-.0586-.29261-.0586-.10042 0-.19979.0199-.29248.0586-.09268.0386-.17689.0954-.24756.1667l-2.28991 2.29c-.07106.0699-.12749.1531-.16602.2449-.03852.0919-.05835.1905-.05835.2901s.01983.1981.05835.29c.03853.0919.09496.1751.16602.2449.07066.0713.15475.1281.24743.1667.09269.0387.19206.0586.29248.0586.10043 0 .19992-.0199.29261-.0586.09268-.0386.17677-.0954.24743-.1667l1-1c.23819 4.1891 1.9736 8.1534 4.89 11.1701 1.554 1.599 3.4098 2.8736 5.46 3.75.0965.0454.2014.0703.3081.073.1066.0028.2127-.0169.3114-.0573.0987-.0405.188-.1008.2621-.1775.0741-.0768.1315-.1683.1684-.2683z"/><path d="m41.3599 31.19c.0394-.0919.0603-.1905.0615-.2905s-.0173-.1994-.0545-.2923c-.0371-.0928-.0921-.1774-.1619-.249-.0699-.0716-.1532-.1288-.2452-.1682-.0919-.0394-.1906-.0603-.2906-.0615s-.1993.0173-.2921.0544c-.0929.0372-.1776.0923-.2492.1621-.0715.0699-.1287.1532-.1681.2451-.7938 1.8764-1.953 3.576-3.41 5-2.8138 2.7143-6.5239 4.3043-10.4299 4.47l1-1c.0709-.0702.1272-.1538.1659-.2458.0386-.0921.0587-.1907.0592-.2906.0004-.0998-.0188-.1988-.0565-.2912-.0378-.0924-.0934-.1764-.1636-.2473-.0703-.0709-.1538-.1274-.2459-.1661-.092-.0386-.1908-.0586-.2906-.059-.0998-.0005-.1988.0186-.2912.0564-.0924.0377-.1765.0933-.2474.1635l-2.2899 2.2901c-.0714.0706-.128.1548-.1666.2475-.0387.0927-.0586.1921-.0586.2925s.0199.1998.0586.2925c.0386.0927.0952.1769.1666.2476l2.2899 2.29c.1432.1432.3375.2236.54.2236.2026 0 .3969-.0804.5401-.2236s.2236-.3375.2236-.54c0-.2026-.0804-.3969-.2236-.5401l-1-1c4.3195-.1487 8.4294-1.8988 11.53-4.9099 1.5843-1.5558 2.8421-3.4122 3.7-5.4602z"/><path d="m43.94 22.7296-1 1c-.1508-4.3171-1.8965-8.4251-4.8999-11.53-1.5531-1.5999-3.4093-2.87471-5.4601-3.74999-.1859-.07728-.3946-.07867-.5816-.0039-.1869.07476-.3371.21989-.4184.40405-.041.09171-.0632.19058-.0652.29102-.002.10043.0163.20043.0536.2937s.093.17792.1637.24927c.0707.07134.155.12788.2479.16601 1.8756.79524 3.575 1.95414 5 3.40994 2.7165 2.8163 4.3067 6.5304 4.47 10.4399l-1-1c-.1458-.1205-.3312-.1823-.5202-.1733-.1889.0089-.3677.0879-.5014.2217-.1338.1337-.2129.3127-.2218.5017-.009.1889.0529.3742.1734.52l2.2801 2.29c.0706.0714.1547.1281.2474.1668.0927.0386.1921.0583.2925.0583s.1999-.0197.2926-.0583c.0927-.0387.1768-.0954.2474-.1668l2.2901-2.29c.071-.0698.1274-.153.166-.2449.0385-.0918.0583-.1904.0583-.29s-.0198-.1982-.0583-.2901c-.0386-.0918-.095-.1753-.166-.2451-.0707-.0713-.1549-.1278-.2476-.1665-.0927-.0386-.1921-.0586-.2925-.0586s-.1999.02-.2926.0586c-.0927.0387-.1768.0952-.2474.1665z"/></g></svg>