<svg fill="none" height="53" viewBox="0 0 39 53" width="39" xmlns="http://www.w3.org/2000/svg"><path d="m37.9686 19.5252c0 10.4248-18.3315 31.152-18.3315 31.152s-18.33144-20.7828-18.33144-31.152c.31841-4.7805 2.38359-9.2581 5.77828-12.52819 3.39466-3.27008 7.86586-5.08881 12.51006-5.08881 4.6443 0 9.1154 1.81873 12.51 5.08881 3.3947 3.27009 5.4599 7.74769 5.7783 12.52819z" stroke="#055577" stroke-width="2"/><g fill="#055577"><path d="m28.2479 14.4654-3.4669 4.4441c.2473.6498.3736 1.3418.3725 2.0398.0169 1.1185-.2881 2.217-.8763 3.1567-.5883.9397-1.4333 1.6782-2.4284 2.1224-.995.4442-2.0954.574-3.1619.373-1.0665-.2011-2.0514-.7239-2.8299-1.5024-.7786-.7785-1.3159-1.7777-1.5441-2.8713s-.137-2.2324.2621-3.2725c.3991-1.04 1.0881-1.9347 1.98-2.5707.8918-.6361 1.9465-.985 3.0305-1.0027h.0955c.5984-.0028 1.1928.1006 1.7573.3055l4.1928-3.7544c-2.0596-1.4021-4.523-2.03289-6.979-1.7872-2.4559.2457-4.7559 1.353-6.516 3.1372-.9784.9792-1.7548 2.1523-2.28264 3.4489-.55032 1.3387-.83393 2.7781-.83393 4.2323s.28361 2.8935.83393 4.2322c.54054 1.2894 1.31544 2.4601 2.28264 3.4489.9707.9956 2.123 1.7826 3.3904 2.3157 1.317.5705 2.731.8643 4.1593.8643s2.8423-.2938 4.1593-.8643c1.2674-.5331 2.4198-1.3201 3.3905-2.3157 1.4976-1.5185 2.5166-3.4677 2.9238-5.5931s.1837-4.3281-.6413-6.3203c-.3301-.8072-.7567-1.5686-1.2702-2.2664z"/><path d="m19.6809 22.3578c-.2632-.0059-.5188-.0917-.7348-.2468-.2161-.155-.3831-.3725-.4799-.625-.0968-.2526-.1193-.529-.0645-.7946s.1844-.5087.3725-.6987c.188-.19.4263-.3185.6849-.3693.2585-.0509.5259-.0219.7685.0833.2427.1053.4498.282.5955.5082s.2235.4917.2235.7633c-.005.3694-.1514.7218-.4073.9802-.2558.2584-.6004.402-.9584.3994zm0-4.3457c-.5641.0117-1.1123.1949-1.5759.5268-.4636.3318-.8219.7974-1.03 1.3385-.208.5411-.2567 1.1336-.1397 1.7031.1169.5694.3942 1.0907.7971 1.4982.4028.4075.9134.6833 1.4676.7926.5541.1094 1.1273.0474 1.6475-.1779.5202-.2254.9643-.6042 1.2767-1.089s.4791-1.054.4792-1.6361c.0053-.4085-.0796-.8128-.2484-1.1824l6.6855-8.6321c.0142-.013.0256-.0289.0334-.0467.0078-.0179.0119-.0372.0119-.0568 0-.0195-.0041-.0389-.0119-.0567-.0078-.0179-.0192-.0338-.0334-.0468-.0263-.0242-.0603-.0376-.0955-.0376-.0353 0-.0692.0134-.0955.0376l-8.099 7.2624c-.3425-.1313-.7042-.2013-1.0696-.2069"/></g></svg>